<?xml version="1.0" encoding="UTF-8"?><svg xmlns="http://www.w3.org/2000/svg" xmlns:xlink="http://www.w3.org/1999/xlink" fill-opacity="1" color-rendering="auto" color-interpolation="auto" text-rendering="auto" stroke="black" stroke-linecap="square" width="84" stroke-miterlimit="10" shape-rendering="auto" stroke-opacity="1" fill="black" stroke-dasharray="none" font-weight="normal" stroke-width="1" height="286" font-family="'Dialog'" font-style="normal" stroke-linejoin="miter" font-size="12px" stroke-dashoffset="0" image-rendering="auto">
  <!--Generated by ySVG 2.6-->
  <defs id="genericDefs"/>
  <g>
    <defs id="defs1">
      <clipPath clipPathUnits="userSpaceOnUse" id="clipPath1">
        <path d="M0 0 L84 0 L84 286 L0 286 L0 0 Z"/>
      </clipPath>
      <clipPath clipPathUnits="userSpaceOnUse" id="clipPath2">
        <path d="M345 68 L429 68 L429 354 L345 354 L345 68 Z"/>
      </clipPath>
    </defs>
    <g fill="white" text-rendering="geometricPrecision" shape-rendering="geometricPrecision" transform="translate(-345,-68)" stroke="white">
      <rect x="345" width="84" height="286" y="68" clip-path="url(#clipPath2)" stroke="none"/>
    </g>
    <g fill="gray" text-rendering="geometricPrecision" shape-rendering="geometricPrecision" stroke="gray">
      <line y2="-37" fill="none" x1="-45" clip-path="url(#clipPath1)" x2="-45" y1="-39"/>
      <line y2="-38" fill="none" x1="-46" clip-path="url(#clipPath1)" x2="-44" y1="-38"/>
      <line y2="-7" fill="none" x1="-45" clip-path="url(#clipPath1)" x2="-45" y1="-9"/>
      <line y2="-8" fill="none" x1="-46" clip-path="url(#clipPath1)" x2="-44" y1="-8"/>
      <line y2="23" fill="none" x1="-45" clip-path="url(#clipPath1)" x2="-45" y1="21"/>
      <line y2="22" fill="none" x1="-46" clip-path="url(#clipPath1)" x2="-44" y1="22"/>
      <line y2="53" fill="none" x1="-45" clip-path="url(#clipPath1)" x2="-45" y1="51"/>
      <line y2="52" fill="none" x1="-46" clip-path="url(#clipPath1)" x2="-44" y1="52"/>
      <line y2="83" fill="none" x1="-45" clip-path="url(#clipPath1)" x2="-45" y1="81"/>
      <line y2="82" fill="none" x1="-46" clip-path="url(#clipPath1)" x2="-44" y1="82"/>
      <line y2="113" fill="none" x1="-45" clip-path="url(#clipPath1)" x2="-45" y1="111"/>
      <line y2="112" fill="none" x1="-46" clip-path="url(#clipPath1)" x2="-44" y1="112"/>
      <line y2="143" fill="none" x1="-45" clip-path="url(#clipPath1)" x2="-45" y1="141"/>
      <line y2="142" fill="none" x1="-46" clip-path="url(#clipPath1)" x2="-44" y1="142"/>
      <line y2="173" fill="none" x1="-45" clip-path="url(#clipPath1)" x2="-45" y1="171"/>
      <line y2="172" fill="none" x1="-46" clip-path="url(#clipPath1)" x2="-44" y1="172"/>
      <line y2="203" fill="none" x1="-45" clip-path="url(#clipPath1)" x2="-45" y1="201"/>
      <line y2="202" fill="none" x1="-46" clip-path="url(#clipPath1)" x2="-44" y1="202"/>
      <line y2="233" fill="none" x1="-45" clip-path="url(#clipPath1)" x2="-45" y1="231"/>
      <line y2="232" fill="none" x1="-46" clip-path="url(#clipPath1)" x2="-44" y1="232"/>
      <line y2="263" fill="none" x1="-45" clip-path="url(#clipPath1)" x2="-45" y1="261"/>
      <line y2="262" fill="none" x1="-46" clip-path="url(#clipPath1)" x2="-44" y1="262"/>
      <line y2="293" fill="none" x1="-45" clip-path="url(#clipPath1)" x2="-45" y1="291"/>
      <line y2="292" fill="none" x1="-46" clip-path="url(#clipPath1)" x2="-44" y1="292"/>
      <line y2="-37" fill="none" x1="-15" clip-path="url(#clipPath1)" x2="-15" y1="-39"/>
      <line y2="-38" fill="none" x1="-16" clip-path="url(#clipPath1)" x2="-14" y1="-38"/>
      <line y2="-7" fill="none" x1="-15" clip-path="url(#clipPath1)" x2="-15" y1="-9"/>
      <line y2="-8" fill="none" x1="-16" clip-path="url(#clipPath1)" x2="-14" y1="-8"/>
      <line y2="23" fill="none" x1="-15" clip-path="url(#clipPath1)" x2="-15" y1="21"/>
      <line y2="22" fill="none" x1="-16" clip-path="url(#clipPath1)" x2="-14" y1="22"/>
      <line y2="53" fill="none" x1="-15" clip-path="url(#clipPath1)" x2="-15" y1="51"/>
      <line y2="52" fill="none" x1="-16" clip-path="url(#clipPath1)" x2="-14" y1="52"/>
      <line y2="83" fill="none" x1="-15" clip-path="url(#clipPath1)" x2="-15" y1="81"/>
      <line y2="82" fill="none" x1="-16" clip-path="url(#clipPath1)" x2="-14" y1="82"/>
      <line y2="113" fill="none" x1="-15" clip-path="url(#clipPath1)" x2="-15" y1="111"/>
      <line y2="112" fill="none" x1="-16" clip-path="url(#clipPath1)" x2="-14" y1="112"/>
      <line y2="143" fill="none" x1="-15" clip-path="url(#clipPath1)" x2="-15" y1="141"/>
      <line y2="142" fill="none" x1="-16" clip-path="url(#clipPath1)" x2="-14" y1="142"/>
      <line y2="173" fill="none" x1="-15" clip-path="url(#clipPath1)" x2="-15" y1="171"/>
      <line y2="172" fill="none" x1="-16" clip-path="url(#clipPath1)" x2="-14" y1="172"/>
      <line y2="203" fill="none" x1="-15" clip-path="url(#clipPath1)" x2="-15" y1="201"/>
      <line y2="202" fill="none" x1="-16" clip-path="url(#clipPath1)" x2="-14" y1="202"/>
      <line y2="233" fill="none" x1="-15" clip-path="url(#clipPath1)" x2="-15" y1="231"/>
      <line y2="232" fill="none" x1="-16" clip-path="url(#clipPath1)" x2="-14" y1="232"/>
      <line y2="263" fill="none" x1="-15" clip-path="url(#clipPath1)" x2="-15" y1="261"/>
      <line y2="262" fill="none" x1="-16" clip-path="url(#clipPath1)" x2="-14" y1="262"/>
      <line y2="293" fill="none" x1="-15" clip-path="url(#clipPath1)" x2="-15" y1="291"/>
      <line y2="292" fill="none" x1="-16" clip-path="url(#clipPath1)" x2="-14" y1="292"/>
      <line y2="-37" fill="none" x1="15" clip-path="url(#clipPath1)" x2="15" y1="-39"/>
      <line y2="-38" fill="none" x1="14" clip-path="url(#clipPath1)" x2="16" y1="-38"/>
      <line y2="-7" fill="none" x1="15" clip-path="url(#clipPath1)" x2="15" y1="-9"/>
      <line y2="-8" fill="none" x1="14" clip-path="url(#clipPath1)" x2="16" y1="-8"/>
      <line y2="23" fill="none" x1="15" clip-path="url(#clipPath1)" x2="15" y1="21"/>
      <line y2="22" fill="none" x1="14" clip-path="url(#clipPath1)" x2="16" y1="22"/>
      <line y2="53" fill="none" x1="15" clip-path="url(#clipPath1)" x2="15" y1="51"/>
      <line y2="52" fill="none" x1="14" clip-path="url(#clipPath1)" x2="16" y1="52"/>
      <line y2="83" fill="none" x1="15" clip-path="url(#clipPath1)" x2="15" y1="81"/>
      <line y2="82" fill="none" x1="14" clip-path="url(#clipPath1)" x2="16" y1="82"/>
      <line y2="113" fill="none" x1="15" clip-path="url(#clipPath1)" x2="15" y1="111"/>
      <line y2="112" fill="none" x1="14" clip-path="url(#clipPath1)" x2="16" y1="112"/>
      <line y2="143" fill="none" x1="15" clip-path="url(#clipPath1)" x2="15" y1="141"/>
      <line y2="142" fill="none" x1="14" clip-path="url(#clipPath1)" x2="16" y1="142"/>
      <line y2="173" fill="none" x1="15" clip-path="url(#clipPath1)" x2="15" y1="171"/>
      <line y2="172" fill="none" x1="14" clip-path="url(#clipPath1)" x2="16" y1="172"/>
      <line y2="203" fill="none" x1="15" clip-path="url(#clipPath1)" x2="15" y1="201"/>
      <line y2="202" fill="none" x1="14" clip-path="url(#clipPath1)" x2="16" y1="202"/>
      <line y2="233" fill="none" x1="15" clip-path="url(#clipPath1)" x2="15" y1="231"/>
      <line y2="232" fill="none" x1="14" clip-path="url(#clipPath1)" x2="16" y1="232"/>
      <line y2="263" fill="none" x1="15" clip-path="url(#clipPath1)" x2="15" y1="261"/>
      <line y2="262" fill="none" x1="14" clip-path="url(#clipPath1)" x2="16" y1="262"/>
      <line y2="293" fill="none" x1="15" clip-path="url(#clipPath1)" x2="15" y1="291"/>
      <line y2="292" fill="none" x1="14" clip-path="url(#clipPath1)" x2="16" y1="292"/>
      <line y2="-37" fill="none" x1="45" clip-path="url(#clipPath1)" x2="45" y1="-39"/>
      <line y2="-38" fill="none" x1="44" clip-path="url(#clipPath1)" x2="46" y1="-38"/>
      <line y2="-7" fill="none" x1="45" clip-path="url(#clipPath1)" x2="45" y1="-9"/>
      <line y2="-8" fill="none" x1="44" clip-path="url(#clipPath1)" x2="46" y1="-8"/>
      <line y2="23" fill="none" x1="45" clip-path="url(#clipPath1)" x2="45" y1="21"/>
      <line y2="22" fill="none" x1="44" clip-path="url(#clipPath1)" x2="46" y1="22"/>
      <line y2="53" fill="none" x1="45" clip-path="url(#clipPath1)" x2="45" y1="51"/>
      <line y2="52" fill="none" x1="44" clip-path="url(#clipPath1)" x2="46" y1="52"/>
      <line y2="83" fill="none" x1="45" clip-path="url(#clipPath1)" x2="45" y1="81"/>
      <line y2="82" fill="none" x1="44" clip-path="url(#clipPath1)" x2="46" y1="82"/>
      <line y2="113" fill="none" x1="45" clip-path="url(#clipPath1)" x2="45" y1="111"/>
      <line y2="112" fill="none" x1="44" clip-path="url(#clipPath1)" x2="46" y1="112"/>
      <line y2="143" fill="none" x1="45" clip-path="url(#clipPath1)" x2="45" y1="141"/>
      <line y2="142" fill="none" x1="44" clip-path="url(#clipPath1)" x2="46" y1="142"/>
      <line y2="173" fill="none" x1="45" clip-path="url(#clipPath1)" x2="45" y1="171"/>
      <line y2="172" fill="none" x1="44" clip-path="url(#clipPath1)" x2="46" y1="172"/>
      <line y2="203" fill="none" x1="45" clip-path="url(#clipPath1)" x2="45" y1="201"/>
      <line y2="202" fill="none" x1="44" clip-path="url(#clipPath1)" x2="46" y1="202"/>
      <line y2="233" fill="none" x1="45" clip-path="url(#clipPath1)" x2="45" y1="231"/>
      <line y2="232" fill="none" x1="44" clip-path="url(#clipPath1)" x2="46" y1="232"/>
      <line y2="263" fill="none" x1="45" clip-path="url(#clipPath1)" x2="45" y1="261"/>
      <line y2="262" fill="none" x1="44" clip-path="url(#clipPath1)" x2="46" y1="262"/>
      <line y2="293" fill="none" x1="45" clip-path="url(#clipPath1)" x2="45" y1="291"/>
      <line y2="292" fill="none" x1="44" clip-path="url(#clipPath1)" x2="46" y1="292"/>
      <line y2="-37" fill="none" x1="75" clip-path="url(#clipPath1)" x2="75" y1="-39"/>
      <line y2="-38" fill="none" x1="74" clip-path="url(#clipPath1)" x2="76" y1="-38"/>
      <line y2="-7" fill="none" x1="75" clip-path="url(#clipPath1)" x2="75" y1="-9"/>
      <line y2="-8" fill="none" x1="74" clip-path="url(#clipPath1)" x2="76" y1="-8"/>
      <line y2="23" fill="none" x1="75" clip-path="url(#clipPath1)" x2="75" y1="21"/>
      <line y2="22" fill="none" x1="74" clip-path="url(#clipPath1)" x2="76" y1="22"/>
      <line y2="53" fill="none" x1="75" clip-path="url(#clipPath1)" x2="75" y1="51"/>
      <line y2="52" fill="none" x1="74" clip-path="url(#clipPath1)" x2="76" y1="52"/>
      <line y2="83" fill="none" x1="75" clip-path="url(#clipPath1)" x2="75" y1="81"/>
      <line y2="82" fill="none" x1="74" clip-path="url(#clipPath1)" x2="76" y1="82"/>
      <line y2="113" fill="none" x1="75" clip-path="url(#clipPath1)" x2="75" y1="111"/>
      <line y2="112" fill="none" x1="74" clip-path="url(#clipPath1)" x2="76" y1="112"/>
      <line y2="143" fill="none" x1="75" clip-path="url(#clipPath1)" x2="75" y1="141"/>
      <line y2="142" fill="none" x1="74" clip-path="url(#clipPath1)" x2="76" y1="142"/>
      <line y2="173" fill="none" x1="75" clip-path="url(#clipPath1)" x2="75" y1="171"/>
      <line y2="172" fill="none" x1="74" clip-path="url(#clipPath1)" x2="76" y1="172"/>
      <line y2="203" fill="none" x1="75" clip-path="url(#clipPath1)" x2="75" y1="201"/>
      <line y2="202" fill="none" x1="74" clip-path="url(#clipPath1)" x2="76" y1="202"/>
      <line y2="233" fill="none" x1="75" clip-path="url(#clipPath1)" x2="75" y1="231"/>
      <line y2="232" fill="none" x1="74" clip-path="url(#clipPath1)" x2="76" y1="232"/>
      <line y2="263" fill="none" x1="75" clip-path="url(#clipPath1)" x2="75" y1="261"/>
      <line y2="262" fill="none" x1="74" clip-path="url(#clipPath1)" x2="76" y1="262"/>
      <line y2="293" fill="none" x1="75" clip-path="url(#clipPath1)" x2="75" y1="291"/>
      <line y2="292" fill="none" x1="74" clip-path="url(#clipPath1)" x2="76" y1="292"/>
      <line y2="-37" fill="none" x1="105" clip-path="url(#clipPath1)" x2="105" y1="-39"/>
      <line y2="-38" fill="none" x1="104" clip-path="url(#clipPath1)" x2="106" y1="-38"/>
      <line y2="-7" fill="none" x1="105" clip-path="url(#clipPath1)" x2="105" y1="-9"/>
      <line y2="-8" fill="none" x1="104" clip-path="url(#clipPath1)" x2="106" y1="-8"/>
      <line y2="23" fill="none" x1="105" clip-path="url(#clipPath1)" x2="105" y1="21"/>
      <line y2="22" fill="none" x1="104" clip-path="url(#clipPath1)" x2="106" y1="22"/>
      <line y2="53" fill="none" x1="105" clip-path="url(#clipPath1)" x2="105" y1="51"/>
      <line y2="52" fill="none" x1="104" clip-path="url(#clipPath1)" x2="106" y1="52"/>
      <line y2="83" fill="none" x1="105" clip-path="url(#clipPath1)" x2="105" y1="81"/>
      <line y2="82" fill="none" x1="104" clip-path="url(#clipPath1)" x2="106" y1="82"/>
      <line y2="113" fill="none" x1="105" clip-path="url(#clipPath1)" x2="105" y1="111"/>
      <line y2="112" fill="none" x1="104" clip-path="url(#clipPath1)" x2="106" y1="112"/>
      <line y2="143" fill="none" x1="105" clip-path="url(#clipPath1)" x2="105" y1="141"/>
      <line y2="142" fill="none" x1="104" clip-path="url(#clipPath1)" x2="106" y1="142"/>
      <line y2="173" fill="none" x1="105" clip-path="url(#clipPath1)" x2="105" y1="171"/>
      <line y2="172" fill="none" x1="104" clip-path="url(#clipPath1)" x2="106" y1="172"/>
      <line y2="203" fill="none" x1="105" clip-path="url(#clipPath1)" x2="105" y1="201"/>
      <line y2="202" fill="none" x1="104" clip-path="url(#clipPath1)" x2="106" y1="202"/>
      <line y2="233" fill="none" x1="105" clip-path="url(#clipPath1)" x2="105" y1="231"/>
      <line y2="232" fill="none" x1="104" clip-path="url(#clipPath1)" x2="106" y1="232"/>
      <line y2="263" fill="none" x1="105" clip-path="url(#clipPath1)" x2="105" y1="261"/>
      <line y2="262" fill="none" x1="104" clip-path="url(#clipPath1)" x2="106" y1="262"/>
      <line y2="293" fill="none" x1="105" clip-path="url(#clipPath1)" x2="105" y1="291"/>
      <line y2="292" fill="none" x1="104" clip-path="url(#clipPath1)" x2="106" y1="292"/>
    </g>
    <g font-size="64px" stroke-linecap="butt" transform="matrix(1,0,0,1,-345,-68)" text-rendering="geometricPrecision" font-family="'Chumbly BRK'" shape-rendering="geometricPrecision" stroke-miterlimit="1.45">
      <text x="370.84" xml:space="preserve" y="137.0161" clip-path="url(#clipPath2)" stroke="none">C</text>
      <text x="370.84" xml:space="preserve" y="199.608" clip-path="url(#clipPath2)" stroke="none">I</text>
      <text x="370.84" xml:space="preserve" y="262.1999" clip-path="url(#clipPath2)" stroke="none">R</text>
      <text x="370.84" xml:space="preserve" y="324.7918" clip-path="url(#clipPath2)" stroke="none">C</text>
    </g>
  </g>
</svg>
