<?xml version="1.0" encoding="UTF-8"?><svg xmlns="http://www.w3.org/2000/svg" xmlns:xlink="http://www.w3.org/1999/xlink" fill-opacity="1" color-rendering="auto" color-interpolation="auto" text-rendering="auto" stroke="black" stroke-linecap="square" width="229" stroke-miterlimit="10" shape-rendering="auto" stroke-opacity="1" fill="black" stroke-dasharray="none" font-weight="normal" stroke-width="1" height="98" font-family="'Dialog'" font-style="normal" stroke-linejoin="miter" font-size="12px" stroke-dashoffset="0" image-rendering="auto">
  <!--Generated by ySVG 2.6-->
  <defs id="genericDefs"/>
  <g>
    <defs id="defs1">
      <clipPath clipPathUnits="userSpaceOnUse" id="clipPath1">
        <path d="M0 0 L229 0 L229 98 L0 98 L0 0 Z"/>
      </clipPath>
      <clipPath clipPathUnits="userSpaceOnUse" id="clipPath2">
        <path d="M290 67 L519 67 L519 165 L290 165 L290 67 Z"/>
      </clipPath>
    </defs>
    <g fill="white" text-rendering="geometricPrecision" shape-rendering="geometricPrecision" transform="translate(-290,-67)" stroke="white">
      <rect x="290" width="229" height="98" y="67" clip-path="url(#clipPath2)" stroke="none"/>
    </g>
    <g fill="gray" text-rendering="geometricPrecision" shape-rendering="geometricPrecision" stroke="gray">
      <line y2="-36" fill="none" x1="-50" clip-path="url(#clipPath1)" x2="-50" y1="-38"/>
      <line y2="-37" fill="none" x1="-51" clip-path="url(#clipPath1)" x2="-49" y1="-37"/>
      <line y2="-6" fill="none" x1="-50" clip-path="url(#clipPath1)" x2="-50" y1="-8"/>
      <line y2="-7" fill="none" x1="-51" clip-path="url(#clipPath1)" x2="-49" y1="-7"/>
      <line y2="24" fill="none" x1="-50" clip-path="url(#clipPath1)" x2="-50" y1="22"/>
      <line y2="23" fill="none" x1="-51" clip-path="url(#clipPath1)" x2="-49" y1="23"/>
      <line y2="54" fill="none" x1="-50" clip-path="url(#clipPath1)" x2="-50" y1="52"/>
      <line y2="53" fill="none" x1="-51" clip-path="url(#clipPath1)" x2="-49" y1="53"/>
      <line y2="84" fill="none" x1="-50" clip-path="url(#clipPath1)" x2="-50" y1="82"/>
      <line y2="83" fill="none" x1="-51" clip-path="url(#clipPath1)" x2="-49" y1="83"/>
      <line y2="114" fill="none" x1="-50" clip-path="url(#clipPath1)" x2="-50" y1="112"/>
      <line y2="113" fill="none" x1="-51" clip-path="url(#clipPath1)" x2="-49" y1="113"/>
      <line y2="-36" fill="none" x1="-20" clip-path="url(#clipPath1)" x2="-20" y1="-38"/>
      <line y2="-37" fill="none" x1="-21" clip-path="url(#clipPath1)" x2="-19" y1="-37"/>
      <line y2="-6" fill="none" x1="-20" clip-path="url(#clipPath1)" x2="-20" y1="-8"/>
      <line y2="-7" fill="none" x1="-21" clip-path="url(#clipPath1)" x2="-19" y1="-7"/>
      <line y2="24" fill="none" x1="-20" clip-path="url(#clipPath1)" x2="-20" y1="22"/>
      <line y2="23" fill="none" x1="-21" clip-path="url(#clipPath1)" x2="-19" y1="23"/>
      <line y2="54" fill="none" x1="-20" clip-path="url(#clipPath1)" x2="-20" y1="52"/>
      <line y2="53" fill="none" x1="-21" clip-path="url(#clipPath1)" x2="-19" y1="53"/>
      <line y2="84" fill="none" x1="-20" clip-path="url(#clipPath1)" x2="-20" y1="82"/>
      <line y2="83" fill="none" x1="-21" clip-path="url(#clipPath1)" x2="-19" y1="83"/>
      <line y2="114" fill="none" x1="-20" clip-path="url(#clipPath1)" x2="-20" y1="112"/>
      <line y2="113" fill="none" x1="-21" clip-path="url(#clipPath1)" x2="-19" y1="113"/>
      <line y2="-36" fill="none" x1="10" clip-path="url(#clipPath1)" x2="10" y1="-38"/>
      <line y2="-37" fill="none" x1="9" clip-path="url(#clipPath1)" x2="11" y1="-37"/>
      <line y2="-6" fill="none" x1="10" clip-path="url(#clipPath1)" x2="10" y1="-8"/>
      <line y2="-7" fill="none" x1="9" clip-path="url(#clipPath1)" x2="11" y1="-7"/>
      <line y2="24" fill="none" x1="10" clip-path="url(#clipPath1)" x2="10" y1="22"/>
      <line y2="23" fill="none" x1="9" clip-path="url(#clipPath1)" x2="11" y1="23"/>
      <line y2="54" fill="none" x1="10" clip-path="url(#clipPath1)" x2="10" y1="52"/>
      <line y2="53" fill="none" x1="9" clip-path="url(#clipPath1)" x2="11" y1="53"/>
      <line y2="84" fill="none" x1="10" clip-path="url(#clipPath1)" x2="10" y1="82"/>
      <line y2="83" fill="none" x1="9" clip-path="url(#clipPath1)" x2="11" y1="83"/>
      <line y2="114" fill="none" x1="10" clip-path="url(#clipPath1)" x2="10" y1="112"/>
      <line y2="113" fill="none" x1="9" clip-path="url(#clipPath1)" x2="11" y1="113"/>
      <line y2="-36" fill="none" x1="40" clip-path="url(#clipPath1)" x2="40" y1="-38"/>
      <line y2="-37" fill="none" x1="39" clip-path="url(#clipPath1)" x2="41" y1="-37"/>
      <line y2="-6" fill="none" x1="40" clip-path="url(#clipPath1)" x2="40" y1="-8"/>
      <line y2="-7" fill="none" x1="39" clip-path="url(#clipPath1)" x2="41" y1="-7"/>
      <line y2="24" fill="none" x1="40" clip-path="url(#clipPath1)" x2="40" y1="22"/>
      <line y2="23" fill="none" x1="39" clip-path="url(#clipPath1)" x2="41" y1="23"/>
      <line y2="54" fill="none" x1="40" clip-path="url(#clipPath1)" x2="40" y1="52"/>
      <line y2="53" fill="none" x1="39" clip-path="url(#clipPath1)" x2="41" y1="53"/>
      <line y2="84" fill="none" x1="40" clip-path="url(#clipPath1)" x2="40" y1="82"/>
      <line y2="83" fill="none" x1="39" clip-path="url(#clipPath1)" x2="41" y1="83"/>
      <line y2="114" fill="none" x1="40" clip-path="url(#clipPath1)" x2="40" y1="112"/>
      <line y2="113" fill="none" x1="39" clip-path="url(#clipPath1)" x2="41" y1="113"/>
      <line y2="-36" fill="none" x1="70" clip-path="url(#clipPath1)" x2="70" y1="-38"/>
      <line y2="-37" fill="none" x1="69" clip-path="url(#clipPath1)" x2="71" y1="-37"/>
      <line y2="-6" fill="none" x1="70" clip-path="url(#clipPath1)" x2="70" y1="-8"/>
      <line y2="-7" fill="none" x1="69" clip-path="url(#clipPath1)" x2="71" y1="-7"/>
      <line y2="24" fill="none" x1="70" clip-path="url(#clipPath1)" x2="70" y1="22"/>
      <line y2="23" fill="none" x1="69" clip-path="url(#clipPath1)" x2="71" y1="23"/>
      <line y2="54" fill="none" x1="70" clip-path="url(#clipPath1)" x2="70" y1="52"/>
      <line y2="53" fill="none" x1="69" clip-path="url(#clipPath1)" x2="71" y1="53"/>
      <line y2="84" fill="none" x1="70" clip-path="url(#clipPath1)" x2="70" y1="82"/>
      <line y2="83" fill="none" x1="69" clip-path="url(#clipPath1)" x2="71" y1="83"/>
      <line y2="114" fill="none" x1="70" clip-path="url(#clipPath1)" x2="70" y1="112"/>
      <line y2="113" fill="none" x1="69" clip-path="url(#clipPath1)" x2="71" y1="113"/>
      <line y2="-36" fill="none" x1="100" clip-path="url(#clipPath1)" x2="100" y1="-38"/>
      <line y2="-37" fill="none" x1="99" clip-path="url(#clipPath1)" x2="101" y1="-37"/>
      <line y2="-6" fill="none" x1="100" clip-path="url(#clipPath1)" x2="100" y1="-8"/>
      <line y2="-7" fill="none" x1="99" clip-path="url(#clipPath1)" x2="101" y1="-7"/>
      <line y2="24" fill="none" x1="100" clip-path="url(#clipPath1)" x2="100" y1="22"/>
      <line y2="23" fill="none" x1="99" clip-path="url(#clipPath1)" x2="101" y1="23"/>
      <line y2="54" fill="none" x1="100" clip-path="url(#clipPath1)" x2="100" y1="52"/>
      <line y2="53" fill="none" x1="99" clip-path="url(#clipPath1)" x2="101" y1="53"/>
      <line y2="84" fill="none" x1="100" clip-path="url(#clipPath1)" x2="100" y1="82"/>
      <line y2="83" fill="none" x1="99" clip-path="url(#clipPath1)" x2="101" y1="83"/>
      <line y2="114" fill="none" x1="100" clip-path="url(#clipPath1)" x2="100" y1="112"/>
      <line y2="113" fill="none" x1="99" clip-path="url(#clipPath1)" x2="101" y1="113"/>
      <line y2="-36" fill="none" x1="130" clip-path="url(#clipPath1)" x2="130" y1="-38"/>
      <line y2="-37" fill="none" x1="129" clip-path="url(#clipPath1)" x2="131" y1="-37"/>
      <line y2="-6" fill="none" x1="130" clip-path="url(#clipPath1)" x2="130" y1="-8"/>
      <line y2="-7" fill="none" x1="129" clip-path="url(#clipPath1)" x2="131" y1="-7"/>
      <line y2="24" fill="none" x1="130" clip-path="url(#clipPath1)" x2="130" y1="22"/>
      <line y2="23" fill="none" x1="129" clip-path="url(#clipPath1)" x2="131" y1="23"/>
      <line y2="54" fill="none" x1="130" clip-path="url(#clipPath1)" x2="130" y1="52"/>
      <line y2="53" fill="none" x1="129" clip-path="url(#clipPath1)" x2="131" y1="53"/>
      <line y2="84" fill="none" x1="130" clip-path="url(#clipPath1)" x2="130" y1="82"/>
      <line y2="83" fill="none" x1="129" clip-path="url(#clipPath1)" x2="131" y1="83"/>
      <line y2="114" fill="none" x1="130" clip-path="url(#clipPath1)" x2="130" y1="112"/>
      <line y2="113" fill="none" x1="129" clip-path="url(#clipPath1)" x2="131" y1="113"/>
      <line y2="-36" fill="none" x1="160" clip-path="url(#clipPath1)" x2="160" y1="-38"/>
      <line y2="-37" fill="none" x1="159" clip-path="url(#clipPath1)" x2="161" y1="-37"/>
      <line y2="-6" fill="none" x1="160" clip-path="url(#clipPath1)" x2="160" y1="-8"/>
      <line y2="-7" fill="none" x1="159" clip-path="url(#clipPath1)" x2="161" y1="-7"/>
      <line y2="24" fill="none" x1="160" clip-path="url(#clipPath1)" x2="160" y1="22"/>
      <line y2="23" fill="none" x1="159" clip-path="url(#clipPath1)" x2="161" y1="23"/>
      <line y2="54" fill="none" x1="160" clip-path="url(#clipPath1)" x2="160" y1="52"/>
      <line y2="53" fill="none" x1="159" clip-path="url(#clipPath1)" x2="161" y1="53"/>
      <line y2="84" fill="none" x1="160" clip-path="url(#clipPath1)" x2="160" y1="82"/>
      <line y2="83" fill="none" x1="159" clip-path="url(#clipPath1)" x2="161" y1="83"/>
      <line y2="114" fill="none" x1="160" clip-path="url(#clipPath1)" x2="160" y1="112"/>
      <line y2="113" fill="none" x1="159" clip-path="url(#clipPath1)" x2="161" y1="113"/>
      <line y2="-36" fill="none" x1="190" clip-path="url(#clipPath1)" x2="190" y1="-38"/>
      <line y2="-37" fill="none" x1="189" clip-path="url(#clipPath1)" x2="191" y1="-37"/>
      <line y2="-6" fill="none" x1="190" clip-path="url(#clipPath1)" x2="190" y1="-8"/>
      <line y2="-7" fill="none" x1="189" clip-path="url(#clipPath1)" x2="191" y1="-7"/>
      <line y2="24" fill="none" x1="190" clip-path="url(#clipPath1)" x2="190" y1="22"/>
      <line y2="23" fill="none" x1="189" clip-path="url(#clipPath1)" x2="191" y1="23"/>
      <line y2="54" fill="none" x1="190" clip-path="url(#clipPath1)" x2="190" y1="52"/>
      <line y2="53" fill="none" x1="189" clip-path="url(#clipPath1)" x2="191" y1="53"/>
      <line y2="84" fill="none" x1="190" clip-path="url(#clipPath1)" x2="190" y1="82"/>
      <line y2="83" fill="none" x1="189" clip-path="url(#clipPath1)" x2="191" y1="83"/>
      <line y2="114" fill="none" x1="190" clip-path="url(#clipPath1)" x2="190" y1="112"/>
      <line y2="113" fill="none" x1="189" clip-path="url(#clipPath1)" x2="191" y1="113"/>
      <line y2="-36" fill="none" x1="220" clip-path="url(#clipPath1)" x2="220" y1="-38"/>
      <line y2="-37" fill="none" x1="219" clip-path="url(#clipPath1)" x2="221" y1="-37"/>
      <line y2="-6" fill="none" x1="220" clip-path="url(#clipPath1)" x2="220" y1="-8"/>
      <line y2="-7" fill="none" x1="219" clip-path="url(#clipPath1)" x2="221" y1="-7"/>
      <line y2="24" fill="none" x1="220" clip-path="url(#clipPath1)" x2="220" y1="22"/>
      <line y2="23" fill="none" x1="219" clip-path="url(#clipPath1)" x2="221" y1="23"/>
      <line y2="54" fill="none" x1="220" clip-path="url(#clipPath1)" x2="220" y1="52"/>
      <line y2="53" fill="none" x1="219" clip-path="url(#clipPath1)" x2="221" y1="53"/>
      <line y2="84" fill="none" x1="220" clip-path="url(#clipPath1)" x2="220" y1="82"/>
      <line y2="83" fill="none" x1="219" clip-path="url(#clipPath1)" x2="221" y1="83"/>
      <line y2="114" fill="none" x1="220" clip-path="url(#clipPath1)" x2="220" y1="112"/>
      <line y2="113" fill="none" x1="219" clip-path="url(#clipPath1)" x2="221" y1="113"/>
      <line y2="-36" fill="none" x1="250" clip-path="url(#clipPath1)" x2="250" y1="-38"/>
      <line y2="-37" fill="none" x1="249" clip-path="url(#clipPath1)" x2="251" y1="-37"/>
      <line y2="-6" fill="none" x1="250" clip-path="url(#clipPath1)" x2="250" y1="-8"/>
      <line y2="-7" fill="none" x1="249" clip-path="url(#clipPath1)" x2="251" y1="-7"/>
      <line y2="24" fill="none" x1="250" clip-path="url(#clipPath1)" x2="250" y1="22"/>
      <line y2="23" fill="none" x1="249" clip-path="url(#clipPath1)" x2="251" y1="23"/>
      <line y2="54" fill="none" x1="250" clip-path="url(#clipPath1)" x2="250" y1="52"/>
      <line y2="53" fill="none" x1="249" clip-path="url(#clipPath1)" x2="251" y1="53"/>
      <line y2="84" fill="none" x1="250" clip-path="url(#clipPath1)" x2="250" y1="82"/>
      <line y2="83" fill="none" x1="249" clip-path="url(#clipPath1)" x2="251" y1="83"/>
      <line y2="114" fill="none" x1="250" clip-path="url(#clipPath1)" x2="250" y1="112"/>
      <line y2="113" fill="none" x1="249" clip-path="url(#clipPath1)" x2="251" y1="113"/>
    </g>
    <g stroke-linecap="butt" font-size="64px" transform="matrix(1,0,0,1,-290,-67)" fill="rgb(0,51,102)" text-rendering="geometricPrecision" font-family="'Chumbly BRK'" shape-rendering="geometricPrecision" stroke="rgb(0,51,102)" stroke-miterlimit="1.45">
      <text x="307.5402" xml:space="preserve" y="135.904" clip-path="url(#clipPath2)" stroke="none">CIRCco</text>
    </g>
  </g>
</svg>
