<?xml version="1.0" encoding="UTF-8"?><svg xmlns="http://www.w3.org/2000/svg" xmlns:xlink="http://www.w3.org/1999/xlink" fill-opacity="1" color-rendering="auto" color-interpolation="auto" text-rendering="auto" stroke="black" stroke-linecap="square" width="171" stroke-miterlimit="10" shape-rendering="auto" stroke-opacity="1" fill="black" stroke-dasharray="none" font-weight="normal" stroke-width="1" height="98" font-family="'Dialog'" font-style="normal" stroke-linejoin="miter" font-size="12px" stroke-dashoffset="0" image-rendering="auto">
  <!--Generated by ySVG 2.6-->
  <defs id="genericDefs"/>
  <g>
    <defs id="defs1">
      <clipPath clipPathUnits="userSpaceOnUse" id="clipPath1">
        <path d="M0 0 L171 0 L171 98 L0 98 L0 0 Z"/>
      </clipPath>
      <clipPath clipPathUnits="userSpaceOnUse" id="clipPath2">
        <path d="M345 67 L516 67 L516 165 L345 165 L345 67 Z"/>
      </clipPath>
    </defs>
    <g fill="white" text-rendering="geometricPrecision" shape-rendering="geometricPrecision" transform="translate(-345,-67)" stroke="white">
      <rect x="345" width="171" height="98" y="67" clip-path="url(#clipPath2)" stroke="none"/>
    </g>
    <g fill="gray" text-rendering="geometricPrecision" shape-rendering="geometricPrecision" stroke="gray">
      <line y2="-36" fill="none" x1="-45" clip-path="url(#clipPath1)" x2="-45" y1="-38"/>
      <line y2="-37" fill="none" x1="-46" clip-path="url(#clipPath1)" x2="-44" y1="-37"/>
      <line y2="-6" fill="none" x1="-45" clip-path="url(#clipPath1)" x2="-45" y1="-8"/>
      <line y2="-7" fill="none" x1="-46" clip-path="url(#clipPath1)" x2="-44" y1="-7"/>
      <line y2="24" fill="none" x1="-45" clip-path="url(#clipPath1)" x2="-45" y1="22"/>
      <line y2="23" fill="none" x1="-46" clip-path="url(#clipPath1)" x2="-44" y1="23"/>
      <line y2="54" fill="none" x1="-45" clip-path="url(#clipPath1)" x2="-45" y1="52"/>
      <line y2="53" fill="none" x1="-46" clip-path="url(#clipPath1)" x2="-44" y1="53"/>
      <line y2="84" fill="none" x1="-45" clip-path="url(#clipPath1)" x2="-45" y1="82"/>
      <line y2="83" fill="none" x1="-46" clip-path="url(#clipPath1)" x2="-44" y1="83"/>
      <line y2="114" fill="none" x1="-45" clip-path="url(#clipPath1)" x2="-45" y1="112"/>
      <line y2="113" fill="none" x1="-46" clip-path="url(#clipPath1)" x2="-44" y1="113"/>
      <line y2="-36" fill="none" x1="-15" clip-path="url(#clipPath1)" x2="-15" y1="-38"/>
      <line y2="-37" fill="none" x1="-16" clip-path="url(#clipPath1)" x2="-14" y1="-37"/>
      <line y2="-6" fill="none" x1="-15" clip-path="url(#clipPath1)" x2="-15" y1="-8"/>
      <line y2="-7" fill="none" x1="-16" clip-path="url(#clipPath1)" x2="-14" y1="-7"/>
      <line y2="24" fill="none" x1="-15" clip-path="url(#clipPath1)" x2="-15" y1="22"/>
      <line y2="23" fill="none" x1="-16" clip-path="url(#clipPath1)" x2="-14" y1="23"/>
      <line y2="54" fill="none" x1="-15" clip-path="url(#clipPath1)" x2="-15" y1="52"/>
      <line y2="53" fill="none" x1="-16" clip-path="url(#clipPath1)" x2="-14" y1="53"/>
      <line y2="84" fill="none" x1="-15" clip-path="url(#clipPath1)" x2="-15" y1="82"/>
      <line y2="83" fill="none" x1="-16" clip-path="url(#clipPath1)" x2="-14" y1="83"/>
      <line y2="114" fill="none" x1="-15" clip-path="url(#clipPath1)" x2="-15" y1="112"/>
      <line y2="113" fill="none" x1="-16" clip-path="url(#clipPath1)" x2="-14" y1="113"/>
      <line y2="-36" fill="none" x1="15" clip-path="url(#clipPath1)" x2="15" y1="-38"/>
      <line y2="-37" fill="none" x1="14" clip-path="url(#clipPath1)" x2="16" y1="-37"/>
      <line y2="-6" fill="none" x1="15" clip-path="url(#clipPath1)" x2="15" y1="-8"/>
      <line y2="-7" fill="none" x1="14" clip-path="url(#clipPath1)" x2="16" y1="-7"/>
      <line y2="24" fill="none" x1="15" clip-path="url(#clipPath1)" x2="15" y1="22"/>
      <line y2="23" fill="none" x1="14" clip-path="url(#clipPath1)" x2="16" y1="23"/>
      <line y2="54" fill="none" x1="15" clip-path="url(#clipPath1)" x2="15" y1="52"/>
      <line y2="53" fill="none" x1="14" clip-path="url(#clipPath1)" x2="16" y1="53"/>
      <line y2="84" fill="none" x1="15" clip-path="url(#clipPath1)" x2="15" y1="82"/>
      <line y2="83" fill="none" x1="14" clip-path="url(#clipPath1)" x2="16" y1="83"/>
      <line y2="114" fill="none" x1="15" clip-path="url(#clipPath1)" x2="15" y1="112"/>
      <line y2="113" fill="none" x1="14" clip-path="url(#clipPath1)" x2="16" y1="113"/>
      <line y2="-36" fill="none" x1="45" clip-path="url(#clipPath1)" x2="45" y1="-38"/>
      <line y2="-37" fill="none" x1="44" clip-path="url(#clipPath1)" x2="46" y1="-37"/>
      <line y2="-6" fill="none" x1="45" clip-path="url(#clipPath1)" x2="45" y1="-8"/>
      <line y2="-7" fill="none" x1="44" clip-path="url(#clipPath1)" x2="46" y1="-7"/>
      <line y2="24" fill="none" x1="45" clip-path="url(#clipPath1)" x2="45" y1="22"/>
      <line y2="23" fill="none" x1="44" clip-path="url(#clipPath1)" x2="46" y1="23"/>
      <line y2="54" fill="none" x1="45" clip-path="url(#clipPath1)" x2="45" y1="52"/>
      <line y2="53" fill="none" x1="44" clip-path="url(#clipPath1)" x2="46" y1="53"/>
      <line y2="84" fill="none" x1="45" clip-path="url(#clipPath1)" x2="45" y1="82"/>
      <line y2="83" fill="none" x1="44" clip-path="url(#clipPath1)" x2="46" y1="83"/>
      <line y2="114" fill="none" x1="45" clip-path="url(#clipPath1)" x2="45" y1="112"/>
      <line y2="113" fill="none" x1="44" clip-path="url(#clipPath1)" x2="46" y1="113"/>
      <line y2="-36" fill="none" x1="75" clip-path="url(#clipPath1)" x2="75" y1="-38"/>
      <line y2="-37" fill="none" x1="74" clip-path="url(#clipPath1)" x2="76" y1="-37"/>
      <line y2="-6" fill="none" x1="75" clip-path="url(#clipPath1)" x2="75" y1="-8"/>
      <line y2="-7" fill="none" x1="74" clip-path="url(#clipPath1)" x2="76" y1="-7"/>
      <line y2="24" fill="none" x1="75" clip-path="url(#clipPath1)" x2="75" y1="22"/>
      <line y2="23" fill="none" x1="74" clip-path="url(#clipPath1)" x2="76" y1="23"/>
      <line y2="54" fill="none" x1="75" clip-path="url(#clipPath1)" x2="75" y1="52"/>
      <line y2="53" fill="none" x1="74" clip-path="url(#clipPath1)" x2="76" y1="53"/>
      <line y2="84" fill="none" x1="75" clip-path="url(#clipPath1)" x2="75" y1="82"/>
      <line y2="83" fill="none" x1="74" clip-path="url(#clipPath1)" x2="76" y1="83"/>
      <line y2="114" fill="none" x1="75" clip-path="url(#clipPath1)" x2="75" y1="112"/>
      <line y2="113" fill="none" x1="74" clip-path="url(#clipPath1)" x2="76" y1="113"/>
      <line y2="-36" fill="none" x1="105" clip-path="url(#clipPath1)" x2="105" y1="-38"/>
      <line y2="-37" fill="none" x1="104" clip-path="url(#clipPath1)" x2="106" y1="-37"/>
      <line y2="-6" fill="none" x1="105" clip-path="url(#clipPath1)" x2="105" y1="-8"/>
      <line y2="-7" fill="none" x1="104" clip-path="url(#clipPath1)" x2="106" y1="-7"/>
      <line y2="24" fill="none" x1="105" clip-path="url(#clipPath1)" x2="105" y1="22"/>
      <line y2="23" fill="none" x1="104" clip-path="url(#clipPath1)" x2="106" y1="23"/>
      <line y2="54" fill="none" x1="105" clip-path="url(#clipPath1)" x2="105" y1="52"/>
      <line y2="53" fill="none" x1="104" clip-path="url(#clipPath1)" x2="106" y1="53"/>
      <line y2="84" fill="none" x1="105" clip-path="url(#clipPath1)" x2="105" y1="82"/>
      <line y2="83" fill="none" x1="104" clip-path="url(#clipPath1)" x2="106" y1="83"/>
      <line y2="114" fill="none" x1="105" clip-path="url(#clipPath1)" x2="105" y1="112"/>
      <line y2="113" fill="none" x1="104" clip-path="url(#clipPath1)" x2="106" y1="113"/>
      <line y2="-36" fill="none" x1="135" clip-path="url(#clipPath1)" x2="135" y1="-38"/>
      <line y2="-37" fill="none" x1="134" clip-path="url(#clipPath1)" x2="136" y1="-37"/>
      <line y2="-6" fill="none" x1="135" clip-path="url(#clipPath1)" x2="135" y1="-8"/>
      <line y2="-7" fill="none" x1="134" clip-path="url(#clipPath1)" x2="136" y1="-7"/>
      <line y2="24" fill="none" x1="135" clip-path="url(#clipPath1)" x2="135" y1="22"/>
      <line y2="23" fill="none" x1="134" clip-path="url(#clipPath1)" x2="136" y1="23"/>
      <line y2="54" fill="none" x1="135" clip-path="url(#clipPath1)" x2="135" y1="52"/>
      <line y2="53" fill="none" x1="134" clip-path="url(#clipPath1)" x2="136" y1="53"/>
      <line y2="84" fill="none" x1="135" clip-path="url(#clipPath1)" x2="135" y1="82"/>
      <line y2="83" fill="none" x1="134" clip-path="url(#clipPath1)" x2="136" y1="83"/>
      <line y2="114" fill="none" x1="135" clip-path="url(#clipPath1)" x2="135" y1="112"/>
      <line y2="113" fill="none" x1="134" clip-path="url(#clipPath1)" x2="136" y1="113"/>
      <line y2="-36" fill="none" x1="165" clip-path="url(#clipPath1)" x2="165" y1="-38"/>
      <line y2="-37" fill="none" x1="164" clip-path="url(#clipPath1)" x2="166" y1="-37"/>
      <line y2="-6" fill="none" x1="165" clip-path="url(#clipPath1)" x2="165" y1="-8"/>
      <line y2="-7" fill="none" x1="164" clip-path="url(#clipPath1)" x2="166" y1="-7"/>
      <line y2="24" fill="none" x1="165" clip-path="url(#clipPath1)" x2="165" y1="22"/>
      <line y2="23" fill="none" x1="164" clip-path="url(#clipPath1)" x2="166" y1="23"/>
      <line y2="54" fill="none" x1="165" clip-path="url(#clipPath1)" x2="165" y1="52"/>
      <line y2="53" fill="none" x1="164" clip-path="url(#clipPath1)" x2="166" y1="53"/>
      <line y2="84" fill="none" x1="165" clip-path="url(#clipPath1)" x2="165" y1="82"/>
      <line y2="83" fill="none" x1="164" clip-path="url(#clipPath1)" x2="166" y1="83"/>
      <line y2="114" fill="none" x1="165" clip-path="url(#clipPath1)" x2="165" y1="112"/>
      <line y2="113" fill="none" x1="164" clip-path="url(#clipPath1)" x2="166" y1="113"/>
      <line y2="-36" fill="none" x1="195" clip-path="url(#clipPath1)" x2="195" y1="-38"/>
      <line y2="-37" fill="none" x1="194" clip-path="url(#clipPath1)" x2="196" y1="-37"/>
      <line y2="-6" fill="none" x1="195" clip-path="url(#clipPath1)" x2="195" y1="-8"/>
      <line y2="-7" fill="none" x1="194" clip-path="url(#clipPath1)" x2="196" y1="-7"/>
      <line y2="24" fill="none" x1="195" clip-path="url(#clipPath1)" x2="195" y1="22"/>
      <line y2="23" fill="none" x1="194" clip-path="url(#clipPath1)" x2="196" y1="23"/>
      <line y2="54" fill="none" x1="195" clip-path="url(#clipPath1)" x2="195" y1="52"/>
      <line y2="53" fill="none" x1="194" clip-path="url(#clipPath1)" x2="196" y1="53"/>
      <line y2="84" fill="none" x1="195" clip-path="url(#clipPath1)" x2="195" y1="82"/>
      <line y2="83" fill="none" x1="194" clip-path="url(#clipPath1)" x2="196" y1="83"/>
      <line y2="114" fill="none" x1="195" clip-path="url(#clipPath1)" x2="195" y1="112"/>
      <line y2="113" fill="none" x1="194" clip-path="url(#clipPath1)" x2="196" y1="113"/>
    </g>
    <g font-size="64px" stroke-linecap="butt" transform="matrix(1,0,0,1,-345,-67)" text-rendering="geometricPrecision" font-family="'Chumbly BRK'" shape-rendering="geometricPrecision" stroke-miterlimit="1.45">
      <text x="365.8601" xml:space="preserve" y="135.904" clip-path="url(#clipPath2)" stroke="none">CIRC</text>
    </g>
  </g>
</svg>
